<svg width="100" height="100" viewBox="0 0 100 100" xmlns="http://www.w3.org/2000/svg"><title>payments-stripe</title><g transform="translate(5 17)" fill="none" fill-rule="evenodd"><rect stroke="#C5CDD7" fill="#FFF" x=".5" y=".5" width="89" height="64.625" rx="3"/><path d="M0 38.742h90v23.883a3 3 0 0 1-3 3H3a3 3 0 0 1-3-3V38.742z" fill="#097AC2"/><path d="M77.478 19.827c0-4.453-2.09-7.967-6.084-7.967-4.01 0-6.437 3.514-6.437 7.933 0 5.236 2.865 7.88 6.977 7.88 2.005 0 3.522-.47 4.668-1.13v-3.48c-1.146.592-2.46.957-4.13.957-1.634 0-3.083-.592-3.269-2.644h8.242c0-.226.033-1.131.033-1.549zm-8.325-1.652c0-1.966 1.163-2.784 2.224-2.784 1.029 0 2.124.818 2.124 2.784h-4.348zM57.935 11.86c-1.792 0-2.945.8-3.585 1.357l-.238-1.079h-4.025v20.28l4.574-.923.018-4.922c.659.453 1.628 1.096 3.238 1.096 3.275 0 6.257-2.504 6.257-8.017-.018-5.044-3.037-7.792-6.239-7.792zm-1.097 11.983c-1.08 0-1.72-.365-2.16-.817l-.017-6.453c.475-.504 1.134-.852 2.177-.852 1.665 0 2.817 1.774 2.817 4.052 0 2.33-1.134 4.07-2.817 4.07zM43.826 10.279l4.696-.997V5.535l-4.696.978zm0 1.581h4.696v15.813h-4.696zm-4.482 1.506l-.285-1.321h-3.842v15.628h4.447V17.081c1.05-1.375 2.828-1.125 3.38-.928v-4.108c-.57-.215-2.65-.608-3.7 1.321zm-9.883-5.459l-4.4.926-.018 14.264c0 2.635 2.002 4.576 4.67 4.576 1.48 0 2.561-.267 3.157-.587V23.47c-.577.231-3.427 1.05-3.427-1.585v-6.322h3.427V11.77h-3.427l.018-3.864zM17.67 16.57c0-.679.552-.94 1.466-.94 1.312 0 2.968.4 4.28 1.113v-4.084c-1.433-.573-2.848-.8-4.28-.8-3.502 0-5.832 1.843-5.832 4.919 0 4.796 6.557 4.031 6.557 6.1 0 .798-.69 1.06-1.656 1.06-1.433 0-3.261-.592-4.71-1.391v4.136c1.604.695 3.226.99 4.71.99 3.588 0 6.056-1.79 6.056-4.9-.017-5.179-6.591-4.258-6.591-6.204z" fill="#1197EB" fill-rule="nonzero"/><path d="M36.93 49.491a1.081 1.081 0 0 1-.23.23.467.467 0 0 1-.27.077.548.548 0 0 1-.304-.1c-.101-.067-.214-.14-.34-.22a2.716 2.716 0 0 0-.432-.22 1.507 1.507 0 0 0-.573-.1c-.202 0-.38.03-.53.087a.99.99 0 0 0-.607.6 1.288 1.288 0 0 0-.076.452c0 .178.05.327.148.447.099.12.23.225.396.316.164.091.35.174.557.25.206.075.418.157.636.246.218.089.43.191.64.307.208.115.395.26.56.433.165.173.297.381.396.626.098.244.148.537.148.879 0 .488-.084.948-.25 1.379-.168.43-.407.807-.72 1.129a3.414 3.414 0 0 1-1.137.766 3.832 3.832 0 0 1-1.506.283c-.277 0-.555-.031-.834-.093a4.322 4.322 0 0 1-.805-.264 4.089 4.089 0 0 1-.715-.403 2.758 2.758 0 0 1-.56-.52l.765-1.012a.752.752 0 0 1 .227-.186.569.569 0 0 1 .274-.073c.123 0 .242.043.359.13l.386.286c.14.104.304.2.49.286.188.087.417.13.69.13.4 0 .709-.11.926-.33.218-.22.326-.544.326-.975 0-.2-.049-.364-.148-.493a1.237 1.237 0 0 0-.389-.327 3.272 3.272 0 0 0-.55-.236 19.89 19.89 0 0 1-.633-.223 5.358 5.358 0 0 1-.633-.283 2.012 2.012 0 0 1-.55-.426 2.049 2.049 0 0 1-.39-.647c-.099-.255-.148-.57-.148-.942a3.288 3.288 0 0 1 .93-2.298 3.32 3.32 0 0 1 1.087-.733 3.626 3.626 0 0 1 1.438-.273 3.68 3.68 0 0 1 1.516.326c.224.103.429.224.613.363.185.14.34.292.468.457l-.646.892zm4.127-.273l-.283 2.345h2.716l-.21 1.612h-2.704l-.297 2.404h3.58l-.21 1.672h-5.736l1.186-9.705h5.723l-.21 1.672h-3.555zm7.912 6.355c.242 0 .452-.02.63-.057.178-.038.33-.085.458-.143a1.58 1.58 0 0 0 .323-.19c.088-.069.167-.132.237-.19.07-.058.137-.105.198-.143a.372.372 0 0 1 .198-.057c.07 0 .128.013.175.037.046.024.08.052.102.083l.751.913a4.137 4.137 0 0 1-1.486 1.142c-.574.26-1.225.39-1.955.39-.607 0-1.144-.108-1.612-.323a3.39 3.39 0 0 1-1.184-.89 3.85 3.85 0 0 1-.728-1.342 5.49 5.49 0 0 1-.247-1.675c0-.555.061-1.081.184-1.578.123-.498.297-.957.521-1.38.224-.421.493-.8.808-1.138a4.957 4.957 0 0 1 4.642-1.489c.296.069.564.164.804.286a3.016 3.016 0 0 1 1.137.996l-.752.88a.955.955 0 0 1-.184.166.476.476 0 0 1-.277.073.401.401 0 0 1-.205-.053 1.508 1.508 0 0 1-.187-.13 29.017 29.017 0 0 0-.215-.17 1.439 1.439 0 0 0-.283-.17 2.039 2.039 0 0 0-.393-.13 2.38 2.38 0 0 0-.537-.053 2.51 2.51 0 0 0-1.13.26 2.68 2.68 0 0 0-.91.743 3.587 3.587 0 0 0-.604 1.172 5.11 5.11 0 0 0-.217 1.542c0 .413.05.782.148 1.106.099.324.234.598.406.822a1.706 1.706 0 0 0 1.384.69zm7.879-.027c.268 0 .513-.052.735-.156a1.75 1.75 0 0 0 .583-.447 2.4 2.4 0 0 0 .412-.702c.108-.276.182-.584.221-.926l.7-5.769h2.149l-.7 5.769a5.33 5.33 0 0 1-.464 1.628 4.27 4.27 0 0 1-.917 1.28 4.098 4.098 0 0 1-1.308.835c-.497.2-1.042.3-1.635.3-.594 0-1.115-.1-1.563-.3a2.915 2.915 0 0 1-1.104-.836 3.16 3.16 0 0 1-.607-1.279 4.576 4.576 0 0 1-.062-1.628l.685-5.769h2.15l-.7 5.769a3.43 3.43 0 0 0 .007.926c.044.275.127.51.248.702.12.193.279.342.474.447.196.104.428.156.696.156zm8.815-3.417c.307 0 .569-.048.784-.143.216-.096.39-.223.524-.383s.231-.347.29-.56c.06-.213.09-.437.09-.672 0-.183-.027-.348-.08-.497a.939.939 0 0 0-.247-.38 1.158 1.158 0 0 0-.422-.242 1.85 1.85 0 0 0-.596-.087h-.765l-.363 2.964h.785zm.54-4.583c.59 0 1.091.064 1.507.19.415.127.755.301 1.018.523.264.222.456.485.577.79.121.304.182.633.182.989 0 .355-.048.693-.142 1.015a3.152 3.152 0 0 1-1.071 1.599 3.55 3.55 0 0 1-.89.51c.131.075.252.167.362.276.11.109.202.24.277.396l1.398 3.417h-1.939a.858.858 0 0 1-.451-.11.622.622 0 0 1-.26-.303l-1.042-2.87a.587.587 0 0 0-.198-.26c-.08-.054-.198-.08-.356-.08h-.482l-.441 3.623h-2.136l1.173-9.705h2.914zm7.154 1.672l-.284 2.345h2.717l-.211 1.612h-2.704l-.296 2.404h3.58l-.211 1.672h-5.736l1.187-9.705h5.722l-.21 1.672h-3.554z" fill="#FFF"/><path d="M14.304 50.812h8.957V58.3h-8.957zm1.566-.419h5.826v-1.412a2.913 2.913 0 1 0-5.826 0v1.412z" stroke="#FFF" stroke-width="2"/></g></svg>